<?xml version="1.0" encoding="UTF-8"?>
<svg width="400" height="80" version="1.1" viewBox="0 0 105.83 21.167" xmlns="http://www.w3.org/2000/svg">
 <g fill="#fff" stroke-width=".26458" aria-label="Derek Lutz">
  <g stroke-width=".26458">
   <path d="m16.881 10.528q0 1.8514-0.55316 3.3303t-1.5579 2.5174-2.4158 1.5917q-1.3998 0.55316-3.0932 0.55316h-5.8364v-15.974h5.8364q1.6933 0 3.0932 0.55316 1.4111 0.55316 2.4158 1.5917 1.0047 1.0386 1.5579 2.5174 0.55316 1.4789 0.55316 3.319zm-1.1966 0q0-1.6708-0.46285-2.9803t-1.3095-2.2126-2.032-1.3773q-1.1853-0.47414-2.619-0.47414h-4.6736v14.1h4.6736q1.4337 0 2.619-0.47414t2.032-1.3773 1.3095-2.2126 0.46285-2.9916z"/>
   <path d="m27.774 11.77q0-0.90312-0.25965-1.6143-0.24836-0.7225-0.71121-1.2192-0.46285-0.49672-1.1063-0.75636-0.63218-0.27094-1.3998-0.27094-0.86925 0-1.5579 0.27094-0.68863 0.27094-1.1966 0.77894-0.49672 0.508-0.80152 1.2192-0.3048 0.71121-0.4064 1.5917zm-7.4959 0.68863v0.21449q0 1.2644 0.29351 2.2239t0.83539 1.6143q0.54187 0.64347 1.3095 0.97085 0.76765 0.32738 1.7159 0.32738 0.84668 0 1.4676-0.18062 0.6209-0.19191 1.0386-0.41769 0.42898-0.23707 0.67734-0.41769 0.24836-0.19191 0.36125-0.19191 0.14676 0 0.22578 0.11289l0.29351 0.36125q-0.27094 0.33867-0.7225 0.63218-0.44027 0.29351-0.99343 0.508-0.54187 0.2032-1.1741 0.32738-0.6209 0.12418-1.2531 0.12418-1.1515 0-2.0998-0.39512-0.94828-0.4064-1.6256-1.1741t-1.0499-1.874q-0.36125-1.1176-0.36125-2.5513 0-1.2079 0.33867-2.2239 0.34996-1.0273 0.99343-1.7611 0.65476-0.74507 1.5917-1.1628 0.94828-0.41769 2.1449-0.41769 0.94828 0 1.7611 0.32738t1.4111 0.95956q0.59832 0.62089 0.93699 1.5353 0.34996 0.91441 0.34996 2.0998 0 0.24836-0.06773 0.33867-0.06773 0.09031-0.22578 0.09031z"/>
   <path d="m32.695 9.9976q0.25965-0.68863 0.58703-1.2192 0.33867-0.54187 0.76765-0.91441 0.44027-0.37254 0.97085-0.56445 0.54187-0.2032 1.1966-0.2032 0.34996 0 0.68863 0.067734 0.33867 0.056445 0.59832 0.21449l-0.09031 0.74507q-0.05644 0.18062-0.21449 0.18062-0.13547 0-0.41769-0.079023-0.27094-0.079023-0.7225-0.079023-0.65476 0-1.1628 0.2032-0.49672 0.19191-0.90312 0.58703-0.39512 0.39512-0.69992 0.98214-0.29351 0.57574-0.54187 1.3321v7.2701h-1.0837v-11.233h0.57574q0.19191 0 0.27094 0.079023 0.07902 0.079023 0.1016 0.27094z"/>
   <path d="m46.912 11.77q0-0.90312-0.25965-1.6143-0.24836-0.7225-0.71121-1.2192-0.46285-0.49672-1.1063-0.75636-0.63218-0.27094-1.3998-0.27094-0.86925 0-1.5579 0.27094t-1.1966 0.77894q-0.49672 0.508-0.80152 1.2192-0.3048 0.71121-0.4064 1.5917zm-7.4959 0.68863v0.21449q0 1.2644 0.29351 2.2239t0.83539 1.6143q0.54187 0.64347 1.3095 0.97085t1.7159 0.32738q0.84668 0 1.4676-0.18062 0.6209-0.19191 1.0386-0.41769 0.42898-0.23707 0.67734-0.41769 0.24836-0.19191 0.36125-0.19191 0.14676 0 0.22578 0.11289l0.29351 0.36125q-0.27094 0.33867-0.7225 0.63218-0.44027 0.29351-0.99343 0.508-0.54187 0.2032-1.1741 0.32738-0.6209 0.12418-1.2531 0.12418-1.1515 0-2.0998-0.39512-0.94828-0.4064-1.6256-1.1741t-1.0499-1.874q-0.36125-1.1176-0.36125-2.5513 0-1.2079 0.33867-2.2239 0.34996-1.0273 0.99343-1.7611 0.65476-0.74507 1.5917-1.1628 0.94828-0.41769 2.1449-0.41769 0.94828 0 1.7611 0.32738t1.4111 0.95956q0.59832 0.62089 0.93699 1.5353 0.34996 0.91441 0.34996 2.0998 0 0.24836-0.06773 0.33867-0.06773 0.09031-0.22578 0.09031z"/>
   <path d="m51.89 2.0953v10.013h0.51929q0.15805 0 0.29351-0.04516 0.14676-0.04516 0.31609-0.21449l4.5043-4.2785q0.11289-0.13547 0.24836-0.2032 0.13547-0.079023 0.33867-0.079023h0.94828l-4.9559 4.7075q-0.2032 0.23707-0.44027 0.37254 0.18062 0.09031 0.3048 0.21449 0.13547 0.11289 0.25965 0.27094l5.2042 5.6671h-0.93699q-0.15805 0-0.29351-0.04516-0.12418-0.05645-0.23707-0.21449l-4.7188-5.0575q-0.09031-0.1016-0.18062-0.16934-0.07902-0.06773-0.16934-0.1016-0.09031-0.04516-0.21449-0.05645-0.11289-0.02258-0.28222-0.02258h-0.508v5.6671h-1.0837v-16.425z"/>
  </g>
  <path d="m71.218 15.473v3.048h-9.9117v-16.448h3.8157v13.4z"/>
  <path d="m82.953 6.8141v11.707h-2.1675q-0.65476 0-0.85796-0.58703l-0.2032-0.67734q-0.33867 0.32738-0.69992 0.59832-0.36125 0.25965-0.77894 0.45156-0.4064 0.18062-0.89183 0.28222-0.47414 0.11289-1.0386 0.11289-0.95956 0-1.7046-0.32738-0.73378-0.33867-1.2418-0.93699t-0.76765-1.4111-0.25965-1.7837v-7.4282h3.4996v7.4282q0 0.86925 0.39512 1.3434t1.1628 0.47414q0.57574 0 1.0725-0.23707 0.508-0.24836 0.98214-0.66605v-8.3426z"/>
  <path d="m89.519 18.701q-0.83539 0-1.4789-0.23707-0.63218-0.24836-1.0725-0.68863-0.42898-0.45156-0.65476-1.0837t-0.22578-1.4111v-6.0509h-0.99343q-0.27094 0-0.46285-0.16934-0.19191-0.18062-0.19191-0.51929v-1.366l1.8627-0.36125 0.68863-2.8561q0.13547-0.54187 0.76765-0.54187h1.8288v3.4206h2.9013v2.3933h-2.9013v5.8138q0 0.4064 0.19191 0.67734 0.2032 0.25965 0.57574 0.25965 0.19191 0 0.31609-0.03387 0.13547-0.04516 0.22578-0.09031 0.1016-0.05644 0.18062-0.09031 0.09031-0.04516 0.2032-0.04516 0.15805 0 0.24836 0.07902 0.1016 0.06773 0.2032 0.22578l1.0612 1.6595q-0.67734 0.508-1.524 0.76765-0.84668 0.24836-1.7498 0.24836z"/>
  <path d="m102.72 8.214q0 0.36125-0.12418 0.69992-0.12418 0.33867-0.32738 0.55316l-4.8881 6.4573h5.2268v2.5965h-9.257v-1.4224q0-0.21449 0.11289-0.54187t0.33867-0.60961l4.9333-6.5363h-5.0688v-2.5965h9.0538z"/>
 </g>
</svg>
